Coordinates
version=1
nRows=20
nColumns=38
inDegrees=no

Units are S.I. units (second, meters, Newtons, ...)
If the header above contains a line with 'inDegrees', this indicates whether rotational values are in degrees (yes) or radians (no).

endheader
time	pelvis_tilt	pelvis_list	pelvis_rotation	pelvis_tx	pelvis_ty	pelvis_tz	hip_flexion_r	hip_adduction_r	hip_rotation_r	knee_angle_r	ankle_angle_r	subtalar_angle_r	mtp_angle_r	hip_flexion_l	hip_adduction_l	hip_rotation_l	knee_angle_l	ankle_angle_l	subtalar_angle_l	mtp_angle_l	lumbar_extension	lumbar_bending	lumbar_rotation	arm_flex_r	arm_add_r	arm_rot_r	elbow_flex_r	pro_sup_r	wrist_flex_r	wrist_dev_r	arm_flex_l	arm_add_l	arm_rot_l	elbow_flex_l	pro_sup_l	wrist_flex_l	wrist_dev_l
1.89	1.38474	1.44979	-3.03092	0.717756	-0.57504	0.922726	0.00479013	-0.244678	-0.0724112	0.99871	-0.0720977	0	0	0.498052	0.0815788	-0.321531	0.571368	0.082279	0	0	-0.0317376	-0.229504	-0.0257416	-0.1827	-0.105955	-0.140968	0.390478	1.29049	0	0	-0.366346	-0.612869	0.544587	0.748566	0.595902	0	0
1.9	1.36631	1.44795	-3.01013	0.720767	-0.587809	0.923649	0.0466414	-0.270309	-0.0685676	1.06673	-0.127869	0	0	0.485498	0.092174	-0.311964	0.578641	0.0926049	0	0	-0.0321792	-0.229285	-0.0271549	-0.185076	-0.109516	-0.140802	0.392	1.28921	0	0	-0.36379	-0.615723	0.553977	0.750194	0.587199	0	0
1.91	1.35838	1.44245	-2.99929	0.723153	-0.599958	0.924898	0.0883263	-0.280254	-0.0608291	1.12969	-0.183034	0	0	0.468297	0.108306	-0.296162	0.573208	0.100346	0	0	-0.0327192	-0.23452	-0.0291964	-0.186031	-0.111284	-0.139818	0.3932	1.28573	0	0	-0.359403	-0.618892	0.562697	0.748444	0.576506	0	0
1.92	1.33713	1.43889	-2.97495	0.724982	-0.612268	0.926113	0.112133	-0.285243	-0.0555296	1.17184	-0.197387	0	0	0.452097	0.117691	-0.290451	0.575886	0.109494	0	0	-0.0338553	-0.23829	-0.0331118	-0.193807	-0.120668	-0.0814156	0.409762	1.19574	0	0	-0.358938	-0.623312	0.56797	0.750397	0.560212	0	0
1.93	1.31342	1.43739	-2.94822	0.726508	-0.624308	0.92775	0.135498	-0.2851	-0.0500683	1.2114	-0.184754	0	0	0.435025	0.124965	-0.282859	0.576984	0.118129	0	0	-0.0360746	-0.239861	-0.0363409	-0.192379	-0.117834	-0.106365	0.407104	1.23389	0	0	-0.357218	-0.624066	0.562367	0.747187	0.566317	0	0
1.94	1.26965	1.43947	-2.90168	0.728109	-0.635885	0.930286	0.156149	-0.277949	-0.0448223	1.2439	-0.160126	0	0	0.41363	0.129227	-0.271547	0.573061	0.126011	0	0	-0.042583	-0.240747	-0.0522651	-0.180607	-0.120108	-0.090259	0.398328	1.22635	0	0	-0.370887	-0.618759	0.529271	0.74801	0.573161	0	0
1.95	1.24073	1.43632	-2.86605	0.728166	-0.647816	0.932451	0.15762	-0.258824	-0.0534729	1.25644	-0.123683	0	0	0.391085	0.137183	-0.260589	0.567853	0.136424	0	0	-0.04547	-0.242979	-0.0517468	-0.186028	-0.117034	-0.0963658	0.402302	1.22021	0	0	-0.359718	-0.623961	0.535102	0.741682	0.573576	0	0
1.96	1.18811	1.44137	-2.81058	0.729721	-0.658536	0.935829	0.192787	-0.247203	-0.0450174	1.29323	-0.118557	0	0	0.366183	0.137934	-0.248596	0.556265	0.142521	0	0	-0.0516164	-0.239275	-0.0675896	-0.169438	-0.119214	-0.0788185	0.385001	1.21405	0	0	-0.36879	-0.618281	0.509915	0.741408	0.573522	0	0
1.97	1.13328	1.44394	-2.74706	0.730939	-0.670007	0.938908	0.193363	-0.236248	-0.0501577	1.28948	-0.0879371	0	0	0.338725	0.140057	-0.236842	0.544347	0.150852	0	0	-0.0574878	-0.235164	-0.0771276	-0.163653	-0.114894	-0.103277	0.37532	1.24771	0	0	-0.365187	-0.621819	0.512251	0.743096	0.562608	0	0
1.98	1.06987	1.45198	-2.68045	0.732112	-0.680159	0.942482	0.226437	-0.202227	-0.021496	1.31262	-0.0908766	0	0	0.313232	0.134786	-0.226991	0.528745	0.155803	0	0	-0.0626186	-0.223652	-0.0837675	-0.155608	-0.120997	-0.0607451	0.368235	1.18933	0	0	-0.358648	-0.615717	0.500671	0.734758	0.572452	0	0
1.99	1.01858	1.45466	-2.61879	0.733508	-0.691331	0.945508	0.228032	-0.192777	-0.0308782	1.29931	-0.0659892	0	0	0.28595	0.135547	-0.216533	0.512998	0.162221	0	0	-0.0672684	-0.218379	-0.0953285	-0.152235	-0.120858	-0.0545421	0.362995	1.18155	0	0	-0.356087	-0.618227	0.498204	0.738308	0.572666	0	0
2	0.973351	1.45748	-2.56461	0.735085	-0.70188	0.948559	0.245849	-0.184632	-0.0341962	1.29929	-0.0547265	0	0	0.259069	0.136422	-0.205308	0.49324	0.16502	0	0	-0.0722884	-0.212064	-0.103952	-0.139528	-0.110988	-0.12863	0.338378	1.27928	0	0	-0.348368	-0.620579	0.501301	0.740568	0.569306	0	0
2.01	0.894396	1.46213	-2.47597	0.737173	-0.712013	0.952029	0.259359	-0.178684	-0.0430281	1.30174	-0.0283125	0	0	0.23083	0.1334	-0.193182	0.473135	0.166237	0	0	-0.0798949	-0.200044	-0.114123	-0.134419	-0.112445	-0.129677	0.333154	1.27785	0	0	-0.338024	-0.619503	0.504406	0.739758	0.571494	0	0
2.02	0.87998	1.4625	-2.44927	0.7391	-0.722674	0.954315	0.278621	-0.193034	-0.0692206	1.29819	-0.0180226	0	0	0.2061	0.137456	-0.183527	0.453853	0.168931	0	0	-0.0825631	-0.197102	-0.126519	-0.13411	-0.112181	-0.130628	0.331648	1.2758	0	0	-0.333266	-0.623921	0.506425	0.746228	0.574979	0	0
2.03	0.834523	1.47086	-2.3977	0.740464	-0.731745	0.956654	0.319291	-0.16788	-0.0483634	1.30898	-0.0254222	0	0	0.188204	0.130125	-0.178663	0.438104	0.171586	0	0	-0.0826675	-0.180835	-0.122146	-0.139022	-0.113915	-0.139736	0.338348	1.26532	0	0	-0.303607	-0.624873	0.534316	0.734043	0.587443	0	0
2.04	0.803446	1.47465	-2.35659	0.743016	-0.741528	0.958482	0.347568	-0.174833	-0.0487607	1.29692	-0.0265506	0	0	0.166774	0.132531	-0.167822	0.420365	0.171682	0	0	-0.0847203	-0.172324	-0.134338	-0.138276	-0.116852	-0.1305	0.340519	1.25643	0	0	-0.298902	-0.626936	0.53075	0.740175	0.600302	0	0
2.05	0.755654	1.47777	-2.29817	0.745241	-0.750857	0.960892	0.373708	-0.171717	-0.0546791	1.28935	-0.0282617	0	0	0.142035	0.131588	-0.157304	0.397409	0.170089	0	0	-0.0916859	-0.1674	-0.159073	-0.126367	-0.119728	-0.109097	0.333554	1.24699	0	0	-0.308487	-0.626476	0.506439	0.750754	0.611213	0	0
2.06	0.724897	1.47897	-2.25408	0.747199	-0.760623	0.9626	0.386669	-0.173897	-0.0661151	1.2683	-0.0155409	0	0	0.117705	0.132185	-0.147365	0.376556	0.170689	0	0	-0.095749	-0.161729	-0.174767	-0.125391	-0.121737	-0.102709	0.3356	1.23856	0	0	-0.302311	-0.630746	0.509847	0.754786	0.616358	0	0
2.07	0.706711	1.48125	-2.22284	0.749021	-0.770282	0.963859	0.40086	-0.176718	-0.0769456	1.24455	-0.00521097	0	0	0.0973078	0.132104	-0.138885	0.359342	0.172433	0	0	-0.0979913	-0.156189	-0.190208	-0.124648	-0.124168	-0.0953227	0.337789	1.22845	0	0	-0.295915	-0.634919	0.513007	0.757885	0.620694	0	0
2.08	0.704323	1.48208	-2.20617	0.751105	-0.779848	0.964896	0.41374	-0.183007	-0.0884717	1.2184	0.00402328	0	0	0.0755606	0.134783	-0.123863	0.339078	0.171415	0	0	-0.100884	-0.152795	-0.205267	-0.121243	-0.121867	-0.130775	0.333847	1.28222	0	0	-0.285436	-0.645152	0.536337	0.764831	0.605385	0	0
